<?xml version="1.0" standalone="no"?>
<!DOCTYPE svg PUBLIC "-//W3C//DTD SVG 20010904//EN"
 "http://www.w3.org/TR/2001/REC-SVG-20010904/DTD/svg10.dtd">
<svg version="1.0" xmlns="http://www.w3.org/2000/svg"
 width="1000.000000pt" height="1000.000000pt" viewBox="0 0 1000.000000 1000.000000"
 preserveAspectRatio="xMidYMid meet">
<metadata>
Created by potrace 1.14, written by Peter Selinger 2001-2017
</metadata>
<g transform="translate(0.000000,1000.000000) scale(0.100000,-0.100000)"
fill="#000000" stroke="none">
<path d="M9569 7356 c-4 -4 -414 -67 -1499 -231 -334 -51 -439 -70 -455 -84
-24 -21 -477 -432 -520 -472 l-30 -28 -190 181 c-104 99 -191 183 -193 187 -1
5 78 84 177 176 99 93 179 171 177 173 -2 2 -291 -40 -643 -93 -351 -53 -876
-132 -1168 -176 -291 -43 -539 -81 -550 -84 -11 -3 -177 -149 -369 -325 l-350
-321 -45 44 c-25 24 -137 130 -248 235 -111 106 -209 192 -218 192 -16 0 -116
-15 -1095 -164 -305 -47 -724 -110 -930 -141 -206 -31 -386 -59 -399 -64 -22
-6 49 -73 747 -701 425 -382 772 -697 771 -700 0 -3 -286 -261 -636 -575
-1177 -1055 -1558 -1397 -1568 -1407 -12 -13 -85 -22 800 107 396 58 919 135
1163 170 244 36 448 67 453 70 4 3 171 156 370 340 199 184 366 335 370 335 4
0 115 -113 246 -251 225 -237 240 -250 268 -245 16 3 298 46 625 95 1156 175
1725 261 1753 267 27 6 23 10 -115 144 -79 76 -141 140 -138 142 3 2 128 118
278 257 l273 253 30 -28 c17 -16 103 -107 192 -201 109 -117 169 -173 183
-173 11 0 214 29 450 65 236 36 681 104 988 150 308 47 562 88 565 91 3 3 -24
34 -60 68 -102 95 -1129 1088 -1129 1092 0 1 359 341 798 755 993 937 934 879
901 879 -14 0 -28 -2 -30 -4z m-3750 -1611 c166 -148 300 -273 298 -277 -5
-14 -819 -739 -827 -736 -4 2 -134 125 -289 273 -265 255 -279 271 -263 287
95 96 769 726 774 725 4 -1 142 -123 307 -272z"/>
</g>
</svg>
